<svg xmlns="http://www.w3.org/2000/svg" xmlns:xlink="http://www.w3.org/1999/xlink" width="1180" height="64" viewBox="0 0 1180 64"><defs><style>.a{fill:#232323;}.b{fill:#9a9a9a;}.c{filter:url(#c);}.d{filter:url(#a);}</style><filter id="a" x="0" y="0" width="66" height="64" filterUnits="userSpaceOnUse"><feOffset input="SourceAlpha"/><feGaussianBlur stdDeviation="3" result="b"/><feFlood flood-color="#191919" flood-opacity="0.467"/><feComposite operator="in" in2="b"/><feComposite in="SourceGraphic"/></filter><filter id="c" x="1116" y="0" width="64" height="64" filterUnits="userSpaceOnUse"><feOffset input="SourceAlpha"/><feGaussianBlur stdDeviation="3" result="d"/><feFlood flood-color="#191919" flood-opacity="0.467"/><feComposite operator="in" in2="d"/><feComposite in="SourceGraphic"/></filter></defs><g transform="translate(-398.028 -347)"><g transform="translate(407.028 356)"><g class="d" transform="matrix(1, 0, 0, 1, -9, -9)"><rect class="a" width="48" height="46" rx="4" transform="translate(9 9)"/></g><g transform="translate(30.007 34.239) rotate(-180)"><path class="b" d="M12.393,10.7,1.543.245A.928.928,0,0,0,.265.266a.849.849,0,0,0,0,1.211l10.211,9.841L.265,21.159a.849.849,0,0,0,0,1.232.928.928,0,0,0,1.278,0l10.85-10.457A.849.849,0,0,0,12.393,10.7Z"/></g></g><g transform="translate(1569.028 402) rotate(180)"><g class="c" transform="matrix(-1, 0, 0, -1, 1171, 55)"><rect class="a" width="46" height="46" rx="4" transform="translate(1171 55) rotate(180)"/></g><g transform="translate(28.921 34.239) rotate(-180)"><g transform="translate(0 0)"><path class="b" d="M11.945,10.7,1.487.245A.871.871,0,0,0,.255,1.477L10.1,11.318.255,21.159a.871.871,0,1,0,1.232,1.232L11.945,11.934A.871.871,0,0,0,11.945,10.7Z"/></g></g></g></g></svg>