<svg xmlns="http://www.w3.org/2000/svg" width="53" height="53.072" viewBox="0 0 53 53.072"><defs><style>.a{fill:#44c6b3;}</style></defs><g transform="translate(-1307 -37.928)"><path class="a" d="M25.679,11.255l0,0L15.121.7a2.382,2.382,0,0,0-3.369,0L1.2,11.248l-.011.011a2.381,2.381,0,0,0,1.585,4.059c.024,0,.049,0,.074,0h.421v7.768a2.791,2.791,0,0,0,2.788,2.788h4.13a.758.758,0,0,0,.758-.758v-6.09a1.274,1.274,0,0,1,1.272-1.272h2.436a1.273,1.273,0,0,1,1.272,1.272v6.09a.758.758,0,0,0,.758.758h4.13A2.791,2.791,0,0,0,23.6,23.089V15.321h.39a2.383,2.383,0,0,0,1.686-4.066Zm-1.074,2.3a.861.861,0,0,1-.612.254H22.845a.758.758,0,0,0-.758.758v8.526a1.273,1.273,0,0,1-1.272,1.272H17.443V19.029a2.791,2.791,0,0,0-2.788-2.788H12.219a2.792,2.792,0,0,0-2.788,2.788v5.332H6.059a1.273,1.273,0,0,1-1.272-1.272V14.563a.758.758,0,0,0-.758-.758H2.9l-.036,0a.865.865,0,0,1-.6-1.477h0L12.825,1.77a.866.866,0,0,1,1.224,0L24.6,12.323l0,0A.868.868,0,0,1,24.606,13.551Zm0,0" transform="translate(1320.5 37.928)"/><rect class="a" width="53" height="3" rx="1.5" transform="translate(1307 88)"/></g></svg>