<svg xmlns="http://www.w3.org/2000/svg" width="446" height="49" viewBox="0 0 446 49"><defs><style>.a{fill:#232323;}.b{fill:none;stroke:#999;stroke-linecap:round;stroke-linejoin:round;stroke-miterlimit:10;stroke-width:1.5px;}.c{fill:#9a9a9a;}.d{fill:#f0f0f0;font-size:17px;font-family:FSAlbertArabic-Regular, FS Albert Arabic;opacity:0.3;}</style></defs><g transform="translate(-14 -112)"><g transform="translate(14 112)"><rect class="a" width="446" height="49" rx="5"/><g transform="translate(10.952 15.293)"><g transform="translate(0 3.285)"><path class="b" d="M13.142,0,0,13.142"/><path class="b" d="M0,0,13.142,13.142"/></g><g transform="translate(403.955)"><path class="c" d="M19.483,18.607l-4.765-4.765a8.367,8.367,0,1,0-.826.826l4.765,4.765a.591.591,0,0,0,.413.174.573.573,0,0,0,.413-.174A.588.588,0,0,0,19.483,18.607ZM1.219,8.36a7.186,7.186,0,1,1,7.186,7.191A7.194,7.194,0,0,1,1.219,8.36Z" transform="translate(-0.05)"/></g></g></g><text class="d" transform="translate(411 144)"><tspan x="-124.831" y="0">كلمات البحث هنا...</tspan></text></g></svg>