<svg xmlns="http://www.w3.org/2000/svg" width="26.144" height="26.144" viewBox="0 0 26.144 26.144"><defs><style>.a{fill:#9a9a9a;}</style></defs><g transform="translate(0)"><g transform="translate(0)"><path class="a" d="M10.349,8.715H1.634A1.636,1.636,0,0,1,0,7.081V1.634A1.636,1.636,0,0,1,1.634,0h8.715a1.636,1.636,0,0,1,1.634,1.634V7.081A1.636,1.636,0,0,1,10.349,8.715ZM1.634,1.089a.546.546,0,0,0-.545.545V7.081a.546.546,0,0,0,.545.545h8.715a.546.546,0,0,0,.545-.545V1.634a.546.546,0,0,0-.545-.545Z" transform="translate(0)"/></g><g transform="translate(0 11.489)"><path class="a" d="M10.349,24.655H1.634A1.605,1.605,0,0,1,0,23.085V11.57A1.605,1.605,0,0,1,1.634,10h8.715a1.605,1.605,0,0,1,1.634,1.57V23.085A1.605,1.605,0,0,1,10.349,24.655ZM1.634,11.047a.535.535,0,0,0-.545.523V23.085a.535.535,0,0,0,.545.523h8.715a.535.535,0,0,0,.545-.523V11.57a.535.535,0,0,0-.545-.523Z" transform="translate(0 -10)"/></g><g transform="translate(14.162 17.429)"><path class="a" d="M23.349,24.715H14.634A1.636,1.636,0,0,1,13,23.081V17.634A1.636,1.636,0,0,1,14.634,16h8.715a1.636,1.636,0,0,1,1.634,1.634v5.447A1.636,1.636,0,0,1,23.349,24.715Zm-8.715-7.625a.546.546,0,0,0-.545.545v5.447a.546.546,0,0,0,.545.545h8.715a.546.546,0,0,0,.545-.545V17.634a.546.546,0,0,0-.545-.545Z" transform="translate(-13 -16)"/></g><g transform="translate(14.162)"><path class="a" d="M23.349,14.774H14.634A1.611,1.611,0,0,1,13,13.191V1.583A1.611,1.611,0,0,1,14.634,0h8.715a1.611,1.611,0,0,1,1.634,1.583V13.191A1.611,1.611,0,0,1,23.349,14.774ZM14.634,1.055a.537.537,0,0,0-.545.528V13.191a.537.537,0,0,0,.545.528h8.715a.537.537,0,0,0,.545-.528V1.583a.537.537,0,0,0-.545-.528Z" transform="translate(-13)"/></g></g></svg>