<svg xmlns="http://www.w3.org/2000/svg" width="26.15" height="26.144" viewBox="0 0 26.15 26.144"><defs><style>.a{fill:#9a9a9a;}</style></defs><g transform="translate(0)"><g transform="translate(0 0)"><path class="a" d="M13.08.05A13.072,13.072,0,0,0,1.061,7.977L.9,8.031l.063.19A13.071,13.071,0,1,0,13.08.05ZM23.333,19.713l-.671-.671V17.48a.435.435,0,0,0-.044-.195l-1.7-3.394v-1.64a.436.436,0,0,0-.194-.363l-1.307-.871a.436.436,0,0,0-.349-.06l-1.6.4L14.779,10.2l-.37-2.592,1.025-1.025h2.2L18.376,7.7a.436.436,0,0,0,.291.188l2.614.436a.432.432,0,0,0,.209-.017L23.9,7.5A12.157,12.157,0,0,1,23.333,19.713Zm-1.8-15.369-.709.472-1.975-.4-1.282-.427a.428.428,0,0,0-.243-.01l-1.62.4L15,4.153,15.524,3.1H17a.436.436,0,0,0,.195-.046L18.7,2.3A12.245,12.245,0,0,1,21.536,4.344ZM8.3,1.894l1.046.7a.435.435,0,0,0,.17.067l2.112.352-.206.617-1.1.367a.436.436,0,0,0-.236.189L8.837,6.269,6.827,7.475,3.864,7.9a.436.436,0,0,0-.375.431V9.636a.436.436,0,0,0,.128.308l.744.744v.749L2.548,10.228,1.891,8.255A12.271,12.271,0,0,1,8.3,1.894ZM7.062,16.181l-1.97-.394-.732-1.46V13.3l1.624-1.624.6,1.2a.436.436,0,0,0,.39.241h2.8l1.18,1.967a.436.436,0,0,0,.373.211h1.211l-.305,1.528-1.65,1.65a.436.436,0,0,0-.128.308v1.089L8.893,21.053a.436.436,0,0,0-.174.349v1.574l-.542-.18-.765-1.914V16.608A.436.436,0,0,0,7.062,16.181Zm-1.31,6.7A12.2,12.2,0,0,1,1.407,9.56l.362,1.086a.435.435,0,0,0,.171.225l2.172,1.448-.5.5a.436.436,0,0,0-.128.308v1.307a.436.436,0,0,0,.046.195l.871,1.743a.436.436,0,0,0,.305.232l1.83.366v4a.436.436,0,0,0,.031.162l.871,2.179a.436.436,0,0,0,.267.251l1.307.436a.428.428,0,0,0,.136.023.436.436,0,0,0,.436-.436V21.619l1.569-1.176a.436.436,0,0,0,.174-.349V18.967l1.615-1.615a.436.436,0,0,0,.119-.223L13.5,14.95a.436.436,0,0,0-.427-.521h-1.5L10.4,12.462a.436.436,0,0,0-.373-.211H7.245l-.749-1.5a.436.436,0,0,0-.32-.235.427.427,0,0,0-.378.122l-.566.563v-.691A.436.436,0,0,0,5.1,10.2l-.744-.744V8.707l2.676-.382A.438.438,0,0,0,7.2,8.267L9.378,6.959a.435.435,0,0,0,.149-.149L10.752,4.77l1.154-.385a.431.431,0,0,0,.275-.275L12.617,2.8a.436.436,0,0,0-.342-.566l-2.522-.42-.443-.3a12.167,12.167,0,0,1,8.38.312l-.8.4h-1.64a.436.436,0,0,0-.392.241l-.871,1.743a.436.436,0,0,0,.252.608l1.307.436a.428.428,0,0,0,.243.01l1.62-.4,1.187.4a.321.321,0,0,0,.052.014l2.179.436a.433.433,0,0,0,.327-.064l.992-.661a12.293,12.293,0,0,1,1.311,1.751l-2.144.715L19,7.059l-.767-1.15a.436.436,0,0,0-.36-.194H15.254a.436.436,0,0,0-.308.128L13.639,7.149a.436.436,0,0,0-.123.37l.436,3.05a.436.436,0,0,0,.261.339l3.05,1.307a.431.431,0,0,0,.277.022l1.556-.389.951.635v1.51a.435.435,0,0,0,.044.195l1.7,3.394v1.64a.436.436,0,0,0,.128.308l.912.912A12.2,12.2,0,0,1,5.753,22.879Z" transform="translate(0 -0.05)"/></g></g></svg>